<svg viewBox="0 0 200 187" xmlns="http://www.w3.org/2000/svg" xmlns:xl 

<mask id="mask0" mask-type="alpha"> 
<path d="M190.312 36.4879C206.582 62.1187 201.309 102.826 182.
130.807 187.559 100.226 186.353C69.6454 185.297 41.0228 161.02
 97.8511 -7.48481 59.1033 6.67581 34.5279C20.9871 10.1032 59.70
 0.00163737C136.23 0.303176 174.193 10.857 190.312 36.4879Z"/>
</mask>

<g mask="url(#mask0)">

<path d="M190.312 36.4879C206.582 62.1187 201.309 102.826 182. 
165.547 130.807 187.559 100.226 186.353C69.6454 185.297 41.022
 129.362C2.45775 97.8511 -7.48481 59.1033 6.67581 34.5279C20.98 
-0.149132 97.9666 0.00163737C136.23 0.303176 174.193 10.857 19 
<image xlink:href="" />

</g>

</svg>